<svg xmlns="http://www.w3.org/2000/svg" xmlns:xlink="http://www.w3.org/1999/xlink" width="980" height="680" viewBox="0 0 980 680">
  <defs>
    <filter id="a" width="113.3%" height="120%" x="-6.7%" y="-10%" filterUnits="objectBoundingBox">
      <feMorphology in="SourceAlpha" operator="dilate" radius="2.5" result="shadowSpreadOuter1"/>
      <feOffset in="shadowSpreadOuter1" result="shadowOffsetOuter1"/>
      <feGaussianBlur in="shadowOffsetOuter1" result="shadowBlurOuter1" stdDeviation="17.5"/>
      <feColorMatrix in="shadowBlurOuter1" values="0 0 0 0 0 0 0 0 0 0 0 0 0 0 0 0 0 0 0.5 0"/>
    </filter>
    <rect id="b" width="900" height="600" x="0" y="0" rx="80"/>
  </defs>
  <g fill="none" fill-rule="evenodd">
    <g transform="translate(40 40)">
      <use xlink:href="#b" fill="#000" filter="url(#a)"/>
      <use xlink:href="#b" fill="#FFB3C7"/>
    </g>
    <g fill="#FFF" fill-rule="nonzero">
      <path d="M448.78 336.192c7.923 7.27 8.095 19.138.386 26.605l-1.556 1.517c-7.805 7.386-20.527 7.532-28.525.328l-44.91-41.501c-12.35-11.59-14.127-25.863-6.256-33.393l1.578-1.55c6.546-6.233 17.074-6.864 24.42-1.462 2.267 1.667 5.314 2.079 7.995 1.08 2.68-.998 4.586-3.254 5-5.92.413-2.665-.729-5.333-2.995-7-13.88-10.193-33.769-8.96-46.08 2.86l-1.567 1.538c-14.572 13.968-11.637 37.507 6.503 54.509l45.026 41.62c14.424 13.02 37.41 12.728 51.448-.654l1.579-1.55c13.834-13.41 13.521-34.713-.702-47.765-3.178-2.923-8.294-2.888-11.426.077-3.133 2.965-3.096 7.738.082 10.661Z"/>
      <path d="M385.561 336.309c4.44 0 8.04 3.39 8.04 7.573-.015 26.008 11.18 50.908 31.022 68.994s46.63 27.809 74.225 26.94c4.437 0 8.034 3.389 8.034 7.568 0 4.18-3.597 7.568-8.034 7.568-31.863.881-62.747-10.432-85.607-31.36-22.86-20.927-35.746-49.683-35.72-79.71 0-4.182 3.6-7.573 8.04-7.573ZM599.624 64.217c19.143 5.327 30.702 23.642 26.524 42.028l-36.177 169.89c-.874 4.103-5.115 6.762-9.472 5.939-4.356-.824-7.18-4.819-6.305-8.923l36.2-169.999c2.463-10.56-4.07-21.136-15.032-24.337-12.672-2.99-25.534 4.2-28.818 16.111l-40.112 129.452c-1.244 4.016-5.71 6.321-9.973 5.15a8.105 8.105 0 0 1-3.553-2.03 7.424 7.424 0 0 1-2.1-3.592L478.95 95.683c-1.15-5.489-4.592-10.313-9.552-13.392-4.96-3.078-11.024-4.153-16.832-2.983-11.7 4.004-18.217 15.759-15.02 27.09l.186.922 18.081 140.094 19.504 27.339c2.427 3.404 1.531 7.992-1.976 10.37l-.218.142c-3.688 2.332-8.685 1.407-11.16-2.067l-19.62-27.507a7.54 7.54 0 0 1-1.621-2.274l-8.172-11.458c-10.34-14.181-20.411-19.094-32.253-12.624l-1.723 1.075c-9.233 5.967-10.49 20.4-.896 34.11l35.163 49.3c6.265 8.664 18.784 10.934 28.015 5.078l1.712-1.097c3.857-2.488 6.66-6.178 7.917-10.42 1.187-4.03 5.618-6.392 9.897-5.275 4.28 1.118 6.787 5.292 5.601 9.323-2.28 7.707-7.377 14.407-14.392 18.919l-1.781 1.119c-16.588 10.489-39.055 6.393-50.289-9.17l-35.234-49.387c-14.077-20.115-12.016-43.87 5.275-55.036l2.236-1.382c17.059-9.34 31.933-5.733 44.615 6.127l-14.598-113.04c-5.144-19.51 6.93-39.378 27.397-45.077 9.976-2.01 20.39-.182 28.928 5.076s14.493 13.511 16.54 22.924l24.856 100.06 31.512-101.694c5.672-19.944 27.362-31.843 48.577-26.651Z"/>
      <path d="M523.483 332.946c-16.676 8.743-27.054 25.244-28.344 50.182-.215 4.165 3.201 7.704 7.63 7.907 4.428.202 8.193-3.01 8.408-7.175 1.162-22.588 10.517-34.784 25.624-40.128a57.792 57.792 0 0 1 24.614-2.655c1.046.109 1.743.207 2.01.251 4.339.836 8.577-1.794 9.465-5.874.89-4.08-1.907-8.065-6.246-8.9l-61.731-12.962c-28.902-7.43-33.26-17.485-27.902-34.248 1.632-6.484 7.228-11.423 14.212-12.546a42.01 42.01 0 0 1 15.073-.033c1.464.24 2.487.47 2.94.59l93.712 20.567a7.427 7.427 0 0 1 1.825.547 15.044 15.044 0 0 1 4.741 3.31c6.276 6.306 9.75 18.207 7.996 37.747-6.113 68.508-40.093 111.051-120.604 110.385-2.865-.026-5.526 1.388-6.982 3.708a7.153 7.153 0 0 0-.076 7.54c1.41 2.346 4.042 3.807 6.907 3.833 90.493.754 130.017-48.74 136.745-124.199 2.115-23.495-2.58-39.603-12.272-49.33-3.961-4.312-9.346-7.252-15.293-8.348l-92.655-20.36a45.775 45.775 0 0 0-4.207-.852 58.364 58.364 0 0 0-21.336.164c-12.677 2.292-22.83 11.22-26.113 22.96-7.728 24.195.523 43.199 39.419 53.198l22.44 4.721Z"/>
    </g>
    <g fill="#FFF" fill-rule="nonzero">
      <path d="M685.382 524.018c-17.254-11.757-40.561-8.832-54.375 6.824s-13.814 39.147 0 54.803c13.814 15.655 37.121 18.58 54.375 6.823v5.015h23.5v-78.485h-23.5v5.02Zm-21.372 54.42c-11.013-.586-19.525-9.888-19.135-20.91.39-11.021 9.54-19.697 20.567-19.502 11.027.195 19.863 9.19 19.863 20.218-.313 11.453-9.842 20.489-21.295 20.193ZM338.532 484.021h24.592v113.463h-24.592zM578.916 516.887a28.547 28.547 0 0 0-24.205 10.954v-8.839H531.31v78.483h23.684v-41.246a16.551 16.551 0 0 1 17.64-17.78c10.329 0 16.265 6.17 16.265 17.618v41.408h23.473v-49.911c0-18.266-14.523-30.687-33.455-30.687ZM437.472 524.018c-17.255-11.757-40.562-8.832-54.376 6.824s-13.814 39.147 0 54.803c13.814 15.655 37.121 18.58 54.376 6.823v5.015h23.499v-78.485h-23.5v5.02Zm-21.373 54.42c-11.014-.585-19.528-9.886-19.138-20.908.39-11.022 9.54-19.7 20.566-19.504 11.027.195 19.864 9.19 19.864 20.218-.312 11.453-9.84 20.488-21.293 20.193ZM497.323 529.222v-10.223h-24.06v78.486h24.111v-36.64c0-12.365 13.401-19.01 22.7-19.01.094 0 .184.01.279.01v-22.841a29.3 29.3 0 0 0-23.03 10.218ZM733.83 569.647c-8.146 0-14.749 6.604-14.749 14.75 0 8.145 6.604 14.748 14.75 14.748s14.75-6.603 14.75-14.749a14.748 14.748 0 0 0-14.75-14.75ZM321.58 484h-25.486a65.184 65.184 0 0 1-26.352 52.607l-10.096 7.562 39.123 53.352h32.166l-35.998-49.091A90.298 90.298 0 0 0 321.581 484ZM231 484h25.532v113.516H231z"/>
    </g>
  </g>
</svg>