<?xml version="1.0" encoding="utf-8"?>
<!-- Generator: Adobe Illustrator 16.0.0, SVG Export Plug-In . SVG Version: 6.00 Build 0)  -->
<!DOCTYPE svg PUBLIC "-//W3C//DTD SVG 1.1//EN" "http://www.w3.org/Graphics/SVG/1.1/DTD/svg11.dtd">
<svg version="1.1" id="Layer_2" xmlns="http://www.w3.org/2000/svg" xmlns:xlink="http://www.w3.org/1999/xlink" x="0px" y="0px"
	 width="794.166px" height="232.32px" viewBox="0 0 794.166 232.32" enable-background="new 0 0 794.166 232.32"
	 xml:space="preserve">
<path fill="#030D18" d="M420.424,175.29c-1.705,0-2.864,0.297-3.477,0.889s-0.918,1.65-0.918,3.175c0,1.465,0.296,2.478,0.889,3.04
	c0.592,0.562,1.739,0.843,3.445,0.843c1.686,0,2.84-0.291,3.461-0.873c0.622-0.582,0.934-1.635,0.934-3.16
	c0-1.465-0.302-2.483-0.902-3.056C423.253,175.576,422.109,175.29,420.424,175.29z M464.785,175.29
	c-1.705,0-2.864,0.297-3.475,0.889c-0.612,0.592-0.919,1.65-0.919,3.175c0,1.465,0.297,2.478,0.888,3.04
	c0.592,0.562,1.74,0.843,3.446,0.843c1.685,0,2.838-0.291,3.462-0.873c0.62-0.582,0.932-1.635,0.932-3.16
	c0-1.465-0.301-2.483-0.902-3.056C467.615,175.576,466.472,175.29,464.785,175.29z M490.819,193.408
	c0.382,0,0.672-0.234,0.872-0.706s0.303-1.26,0.303-2.363c0-0.582-0.027-1.073-0.075-1.476c-0.052-0.4-0.127-0.717-0.228-0.947
	c-0.1-0.23-0.225-0.396-0.375-0.496c-0.15-0.101-0.328-0.151-0.527-0.151h-5.838v-5.988c0-0.2-0.062-0.382-0.182-0.542
	c-0.121-0.16-0.321-0.296-0.602-0.406c-0.281-0.11-0.666-0.191-1.159-0.241c-0.491-0.05-1.107-0.075-1.851-0.075
	c-0.722,0-1.328,0.025-1.821,0.075c-0.491,0.05-0.882,0.131-1.173,0.241c-0.292,0.11-0.492,0.246-0.603,0.406
	c-0.109,0.16-0.165,0.342-0.165,0.542v5.988h-3.19c-0.2,0-0.376,0.051-0.525,0.151c-0.152,0.1-0.277,0.266-0.378,0.496
	c-0.1,0.23-0.175,0.547-0.225,0.947c-0.051,0.402-0.075,0.894-0.075,1.476c0,1.104,0.1,1.892,0.3,2.363s0.491,0.706,0.872,0.706
	h3.222v13.755c0,1.645,0.169,3.069,0.512,4.273c0.341,1.204,0.872,2.202,1.594,2.994c0.723,0.793,1.637,1.381,2.74,1.761
	c1.104,0.381,2.406,0.572,3.912,0.572c0.562,0,1.119-0.03,1.672-0.091c0.55-0.06,1.062-0.146,1.534-0.255
	c0.472-0.111,0.882-0.241,1.233-0.392c0.351-0.15,0.616-0.321,0.798-0.512c0.181-0.19,0.325-0.521,0.437-0.993
	c0.109-0.471,0.166-1.148,0.166-2.031c0-0.562-0.027-1.023-0.075-1.385c-0.052-0.361-0.106-0.647-0.166-0.857
	c-0.062-0.211-0.146-0.352-0.256-0.422c-0.111-0.07-0.228-0.105-0.347-0.105c-0.141,0-0.297,0.035-0.466,0.105
	c-0.171,0.07-0.381,0.15-0.634,0.241c-0.25,0.09-0.537,0.17-0.856,0.24c-0.321,0.07-0.684,0.106-1.084,0.106
	c-1.184,0-2.006-0.366-2.468-1.1c-0.463-0.731-0.691-1.83-0.691-3.295v-12.611H490.819z M405.48,182.047
	c-1.654-1.595-3.691-2.798-6.109-3.611c-2.418-0.812-5.362-1.219-8.833-1.219h-9.993c-0.662,0-1.219,0.195-1.669,0.587
	c-0.452,0.391-0.678,1.028-0.678,1.911v33.948c0,0.883,0.226,1.521,0.678,1.911c0.45,0.392,1.007,0.588,1.669,0.588h9.3
	c3.452,0,6.427-0.377,8.924-1.129c2.499-0.753,4.62-1.931,6.367-3.536c1.744-1.605,3.084-3.677,4.016-6.216
	c0.935-2.537,1.399-5.593,1.399-9.164c0-3.089-0.431-5.809-1.293-8.155C408.395,185.613,407.136,183.643,405.48,182.047z
	 M401.628,202.287c-0.491,1.686-1.232,3.096-2.226,4.229c-0.994,1.134-2.234,1.981-3.719,2.544
	c-1.484,0.561-3.309,0.842-5.477,0.842h-4.125v-26.484h4.005c2.427,0,4.388,0.326,5.884,0.978c1.494,0.652,2.719,1.561,3.672,2.724
	c0.953,1.164,1.645,2.539,2.075,4.123c0.432,1.586,0.647,3.301,0.647,5.146C402.365,198.636,402.12,200.602,401.628,202.287z
	 M423.388,187.435c-0.291-0.11-0.676-0.196-1.157-0.256c-0.483-0.061-1.096-0.09-1.837-0.09c-0.743,0-1.354,0.029-1.837,0.09
	c-0.481,0.06-0.866,0.146-1.157,0.256c-0.292,0.11-0.496,0.241-0.618,0.392c-0.119,0.15-0.181,0.326-0.181,0.526v26.786
	c0,0.201,0.062,0.376,0.181,0.526c0.122,0.15,0.326,0.276,0.618,0.376c0.291,0.101,0.676,0.176,1.157,0.226
	c0.483,0.05,1.094,0.076,1.837,0.076c0.741,0,1.354-0.026,1.837-0.076c0.481-0.05,0.866-0.125,1.157-0.226
	c0.29-0.1,0.496-0.226,0.618-0.376c0.119-0.15,0.181-0.325,0.181-0.526v-26.786c0-0.2-0.062-0.376-0.181-0.526
	C423.884,187.676,423.678,187.545,423.388,187.435z M454.795,187.269h-8.518c-0.662-0.18-1.381-0.32-2.152-0.421
	c-0.772-0.1-1.581-0.151-2.422-0.151c-1.646,0-3.152,0.227-4.516,0.678c-1.364,0.452-2.539,1.104-3.521,1.956
	c-0.984,0.854-1.753,1.896-2.303,3.131c-0.553,1.233-0.828,2.633-0.828,4.198c0,1.465,0.212,2.688,0.632,3.672
	c0.422,0.983,0.983,1.826,1.687,2.527c-0.862,0.783-1.565,1.661-2.106,2.634c-0.543,0.974-0.814,2.052-0.814,3.236
	c0,0.943,0.236,1.811,0.709,2.603c0.471,0.793,1.137,1.42,2,1.881c-0.622,0.462-1.173,0.943-1.654,1.445
	c-0.482,0.501-0.889,1.028-1.221,1.579c-0.329,0.552-0.581,1.13-0.75,1.731c-0.172,0.602-0.257,1.234-0.257,1.896
	c0,1.063,0.235,2.042,0.707,2.935s1.225,1.66,2.258,2.302c1.032,0.643,2.356,1.144,3.972,1.506c1.616,0.361,3.566,0.541,5.854,0.541
	c2.349,0,4.399-0.25,6.155-0.752c1.756-0.501,3.216-1.184,4.38-2.047c1.163-0.863,2.035-1.881,2.619-3.054
	c0.581-1.175,0.871-2.424,0.871-3.748c0-1.203-0.215-2.276-0.646-3.22s-1.053-1.75-1.865-2.423s-1.818-1.194-3.012-1.565
	s-2.553-0.587-4.078-0.647l-6.53-0.24c-0.922-0.04-1.64-0.246-2.15-0.617c-0.513-0.371-0.769-0.848-0.769-1.43
	c0-0.44,0.095-0.842,0.285-1.203c0.19-0.362,0.406-0.672,0.646-0.934c0.422,0.282,1.025,0.527,1.807,0.737
	c0.783,0.211,1.605,0.316,2.468,0.316c1.687,0,3.216-0.216,4.591-0.647c1.374-0.431,2.547-1.063,3.521-1.896
	c0.973-0.833,1.722-1.856,2.243-3.07s0.781-2.603,0.781-4.168c0-0.662-0.094-1.299-0.284-1.911
	c-0.192-0.612-0.509-1.159-0.949-1.641h3.161c0.319,0,0.591-0.23,0.812-0.691c0.22-0.463,0.331-1.175,0.331-2.138
	c0-1.043-0.105-1.785-0.317-2.228C455.411,187.49,455.136,187.269,454.795,187.269z M436.541,217.035
	c0.19-0.322,0.441-0.658,0.753-1.009c0.31-0.351,0.726-0.718,1.247-1.099l5.388,0.15c1.265,0.041,2.259,0.301,2.98,0.782
	c0.722,0.482,1.084,1.175,1.084,2.077c0,0.521-0.103,1.018-0.303,1.489s-0.541,0.898-1.022,1.279
	c-0.48,0.382-1.112,0.688-1.896,0.918c-0.781,0.23-1.746,0.347-2.89,0.347c-1.847,0-3.274-0.262-4.288-0.783
	s-1.521-1.284-1.521-2.287c0-0.321,0.03-0.633,0.091-0.933C436.226,217.666,436.351,217.355,436.541,217.035z M445.931,198.239
	c-0.19,0.552-0.472,1.038-0.843,1.46c-0.372,0.421-0.838,0.752-1.4,0.992c-0.562,0.241-1.223,0.361-1.984,0.361
	c-1.425,0-2.54-0.396-3.343-1.188c-0.801-0.793-1.203-1.871-1.203-3.235c0-0.621,0.091-1.219,0.271-1.791s0.456-1.072,0.828-1.505
	c0.369-0.431,0.837-0.771,1.399-1.023c0.561-0.25,1.213-0.376,1.956-0.376c1.464,0,2.598,0.402,3.4,1.204
	c0.803,0.803,1.203,1.927,1.203,3.371C446.216,197.11,446.121,197.688,445.931,198.239z M467.75,187.435
	c-0.29-0.11-0.678-0.196-1.158-0.256c-0.481-0.061-1.094-0.09-1.835-0.09c-0.743,0-1.355,0.029-1.837,0.09
	c-0.481,0.06-0.868,0.146-1.159,0.256s-0.497,0.241-0.616,0.392c-0.121,0.15-0.181,0.326-0.181,0.526v26.786
	c0,0.201,0.06,0.376,0.181,0.526c0.119,0.15,0.325,0.276,0.616,0.376c0.291,0.101,0.678,0.176,1.159,0.226s1.094,0.076,1.837,0.076
	c0.741,0,1.354-0.026,1.835-0.076c0.48-0.05,0.868-0.125,1.158-0.226c0.291-0.1,0.497-0.226,0.616-0.376
	c0.122-0.15,0.181-0.325,0.181-0.526v-26.786c0-0.2-0.059-0.376-0.181-0.526C468.247,187.676,468.041,187.545,467.75,187.435z
	 M609.836,190.429c-1.152-1.264-2.612-2.222-4.378-2.874s-3.853-0.979-6.261-0.979c-2.467,0-4.619,0.372-6.455,1.114
	s-3.366,1.79-4.591,3.145c-1.223,1.354-2.141,2.979-2.753,4.876s-0.918,3.988-0.918,6.275c0,2.367,0.281,4.475,0.843,6.32
	s1.425,3.4,2.587,4.665c1.166,1.264,2.629,2.228,4.396,2.889c1.766,0.662,3.84,0.993,6.229,0.993c2.468,0,4.624-0.371,6.471-1.113
	c1.846-0.742,3.381-1.796,4.605-3.16s2.137-2.989,2.739-4.875c0.601-1.886,0.903-3.974,0.903-6.261c0-2.387-0.283-4.504-0.844-6.351
	C611.848,193.248,610.99,191.693,609.836,190.429z M605.067,205.552c-0.262,1.114-0.663,2.062-1.206,2.845
	c-0.541,0.783-1.233,1.38-2.074,1.791c-0.844,0.412-1.838,0.617-2.98,0.617c-1.244,0-2.287-0.226-3.131-0.677
	c-0.842-0.452-1.51-1.089-2-1.912c-0.494-0.822-0.85-1.79-1.068-2.904c-0.223-1.112-0.332-2.332-0.332-3.656
	c0-1.425,0.135-2.693,0.406-3.808c0.271-1.113,0.678-2.066,1.219-2.858c0.541-0.793,1.234-1.396,2.078-1.807
	c0.841-0.41,1.824-0.616,2.949-0.616c1.263,0,2.312,0.23,3.144,0.691c0.834,0.463,1.5,1.104,2.003,1.927
	c0.5,0.823,0.855,1.79,1.068,2.904c0.209,1.113,0.315,2.332,0.315,3.656C605.458,203.171,605.327,204.439,605.067,205.552z
	 M692.646,175.29c-1.705,0-2.863,0.297-3.475,0.889s-0.918,1.65-0.918,3.175c0,1.465,0.297,2.478,0.888,3.04
	c0.591,0.562,1.741,0.843,3.446,0.843c1.685,0,2.838-0.291,3.462-0.873c0.62-0.582,0.932-1.635,0.932-3.16
	c0-1.465-0.3-2.483-0.903-3.056C695.479,175.576,694.334,175.29,692.646,175.29z M695.613,187.435
	c-0.291-0.11-0.678-0.196-1.16-0.256c-0.48-0.061-1.094-0.09-1.834-0.09c-0.744,0-1.355,0.029-1.837,0.09
	c-0.481,0.06-0.868,0.146-1.159,0.256s-0.496,0.241-0.616,0.392c-0.121,0.15-0.181,0.326-0.181,0.526v26.786
	c0,0.201,0.06,0.376,0.181,0.526c0.12,0.15,0.325,0.276,0.616,0.376c0.291,0.101,0.678,0.176,1.159,0.226s1.093,0.076,1.837,0.076
	c0.74,0,1.354-0.026,1.834-0.076c0.482-0.05,0.869-0.125,1.16-0.226c0.29-0.1,0.496-0.226,0.615-0.376
	c0.121-0.15,0.182-0.325,0.182-0.526v-26.786c0-0.2-0.061-0.376-0.182-0.526C696.109,187.676,695.903,187.545,695.613,187.435z
	 M727.695,190.429c-1.154-1.264-2.613-2.222-4.379-2.874s-3.854-0.979-6.26-0.979c-2.469,0-4.621,0.372-6.455,1.114
	c-1.837,0.742-3.367,1.79-4.59,3.145c-1.225,1.354-2.144,2.979-2.754,4.876c-0.611,1.896-0.918,3.988-0.918,6.275
	c0,2.367,0.281,4.475,0.842,6.32c0.562,1.846,1.424,3.4,2.589,4.665c1.163,1.264,2.628,2.228,4.394,2.889
	c1.766,0.662,3.843,0.993,6.23,0.993c2.469,0,4.625-0.371,6.471-1.113c1.847-0.742,3.381-1.796,4.605-3.16
	c1.223-1.364,2.135-2.989,2.738-4.875c0.602-1.886,0.902-3.974,0.902-6.261c0-2.387-0.281-4.504-0.844-6.351
	C729.706,193.248,728.85,191.693,727.695,190.429z M722.926,205.552c-0.262,1.114-0.664,2.062-1.204,2.845
	c-0.544,0.783-1.233,1.38-2.077,1.791c-0.844,0.412-1.835,0.617-2.979,0.617c-1.246,0-2.287-0.226-3.131-0.677
	c-0.844-0.452-1.51-1.089-2.002-1.912c-0.491-0.822-0.848-1.79-1.068-2.904c-0.221-1.112-0.332-2.332-0.332-3.656
	c0-1.425,0.137-2.693,0.406-3.808c0.271-1.113,0.678-2.066,1.221-2.858c0.541-0.793,1.234-1.396,2.076-1.807
	c0.844-0.41,1.825-0.616,2.949-0.616c1.266,0,2.312,0.23,3.146,0.691c0.832,0.463,1.5,1.104,2,1.927
	c0.502,0.823,0.859,1.79,1.068,2.904c0.212,1.113,0.316,2.332,0.316,3.656C723.316,203.171,723.186,204.439,722.926,205.552z
	 M760.561,189.933c-0.771-1.033-1.786-1.851-3.039-2.453c-1.254-0.602-2.794-0.903-4.619-0.903c-1.666,0-3.266,0.402-4.802,1.204
	c-1.534,0.804-3.044,2.007-4.528,3.612v-3.101c0-0.2-0.051-0.376-0.15-0.526c-0.102-0.15-0.268-0.275-0.496-0.376
	c-0.231-0.101-0.559-0.176-0.979-0.226c-0.422-0.051-0.953-0.075-1.596-0.075c-0.623,0-1.139,0.024-1.551,0.075
	c-0.412,0.05-0.746,0.125-1.008,0.226s-0.441,0.226-0.541,0.376c-0.101,0.15-0.15,0.326-0.15,0.526v26.847
	c0,0.201,0.059,0.376,0.181,0.526c0.119,0.15,0.325,0.276,0.616,0.376c0.291,0.101,0.678,0.176,1.158,0.226
	c0.482,0.05,1.094,0.076,1.838,0.076c0.74,0,1.354-0.026,1.834-0.076c0.481-0.05,0.869-0.125,1.159-0.226
	c0.29-0.1,0.497-0.226,0.616-0.376c0.121-0.15,0.182-0.325,0.182-0.526v-17.848c1.062-1.344,2.086-2.367,3.07-3.07
	c0.982-0.701,1.956-1.053,2.919-1.053c0.763,0,1.429,0.146,2,0.437c0.571,0.291,1.04,0.702,1.399,1.233
	c0.362,0.532,0.638,1.17,0.828,1.912c0.191,0.742,0.287,1.766,0.287,3.069v15.319c0,0.201,0.059,0.376,0.182,0.526
	c0.119,0.15,0.318,0.276,0.6,0.376c0.281,0.101,0.668,0.176,1.159,0.226s1.109,0.076,1.851,0.076c0.724,0,1.33-0.026,1.821-0.076
	s0.878-0.125,1.159-0.226c0.281-0.1,0.48-0.226,0.602-0.376c0.119-0.15,0.18-0.325,0.18-0.526v-16.584
	c0-1.945-0.17-3.611-0.51-4.995C761.89,192.175,761.333,190.966,760.561,189.933z M682.174,193.408c0.381,0,0.672-0.234,0.873-0.706
	c0.199-0.472,0.302-1.26,0.302-2.363c0-0.582-0.027-1.073-0.075-1.476c-0.053-0.4-0.127-0.717-0.227-0.947
	c-0.102-0.23-0.227-0.396-0.376-0.496c-0.15-0.101-0.327-0.151-0.528-0.151h-5.837v-5.988c0-0.2-0.062-0.382-0.181-0.542
	c-0.121-0.16-0.322-0.296-0.604-0.406s-0.666-0.191-1.158-0.241c-0.491-0.05-1.107-0.075-1.851-0.075
	c-0.722,0-1.328,0.025-1.821,0.075c-0.49,0.05-0.882,0.131-1.172,0.241c-0.293,0.11-0.494,0.246-0.604,0.406
	s-0.165,0.342-0.165,0.542v5.988h-3.19c-0.2,0-0.375,0.051-0.525,0.151c-0.152,0.1-0.277,0.266-0.377,0.496
	c-0.101,0.23-0.176,0.547-0.227,0.947c-0.049,0.402-0.074,0.894-0.074,1.476c0,1.104,0.1,1.892,0.301,2.363
	c0.199,0.472,0.49,0.706,0.871,0.706h3.222v13.755c0,1.645,0.169,3.069,0.511,4.273s0.873,2.202,1.596,2.994
	c0.722,0.793,1.637,1.381,2.739,1.761c1.103,0.381,2.407,0.572,3.912,0.572c0.562,0,1.118-0.03,1.671-0.091
	c0.551-0.06,1.062-0.146,1.535-0.255c0.472-0.111,0.881-0.241,1.234-0.392c0.35-0.15,0.615-0.321,0.797-0.512
	c0.181-0.19,0.325-0.521,0.436-0.993c0.111-0.471,0.167-1.148,0.167-2.031c0-0.562-0.027-1.023-0.075-1.385
	c-0.053-0.361-0.105-0.647-0.166-0.857c-0.061-0.211-0.146-0.352-0.256-0.422c-0.111-0.07-0.227-0.105-0.346-0.105
	c-0.141,0-0.297,0.035-0.467,0.105c-0.172,0.07-0.381,0.15-0.633,0.241c-0.251,0.09-0.537,0.17-0.857,0.24
	c-0.321,0.07-0.684,0.106-1.084,0.106c-1.184,0-2.006-0.366-2.469-1.1c-0.461-0.731-0.69-1.83-0.69-3.295v-12.611H682.174z
	 M788.505,204.379c-0.382-0.893-0.882-1.66-1.503-2.303c-0.623-0.642-1.331-1.184-2.123-1.625c-0.793-0.441-1.596-0.828-2.408-1.159
	c-0.812-0.33-1.615-0.636-2.406-0.917c-0.793-0.281-1.502-0.582-2.123-0.903c-0.623-0.32-1.123-0.692-1.504-1.114
	c-0.381-0.42-0.572-0.942-0.572-1.564c0-0.4,0.079-0.777,0.24-1.129c0.16-0.35,0.4-0.656,0.723-0.917
	c0.32-0.261,0.731-0.462,1.234-0.603c0.5-0.14,1.094-0.211,1.775-0.211c0.964,0,1.82,0.105,2.573,0.316s1.415,0.437,1.987,0.677
	c0.572,0.241,1.047,0.467,1.428,0.678c0.382,0.21,0.663,0.316,0.844,0.316c0.16,0,0.301-0.035,0.422-0.106
	c0.119-0.069,0.214-0.205,0.285-0.406c0.07-0.2,0.121-0.471,0.15-0.812c0.03-0.341,0.046-0.782,0.046-1.323
	c0-0.462-0.016-0.849-0.046-1.159c-0.029-0.312-0.066-0.572-0.104-0.783c-0.04-0.21-0.103-0.391-0.181-0.542
	c-0.081-0.149-0.216-0.3-0.406-0.451c-0.191-0.15-0.508-0.331-0.949-0.541c-0.441-0.211-0.982-0.406-1.625-0.587
	c-0.641-0.181-1.359-0.331-2.152-0.451c-0.791-0.121-1.609-0.182-2.453-0.182c-1.685,0-3.203,0.211-4.559,0.633
	c-1.354,0.422-2.504,1.014-3.447,1.776c-0.943,0.762-1.665,1.68-2.166,2.753c-0.502,1.073-0.752,2.253-0.752,3.537
	c0,1.264,0.185,2.347,0.557,3.249c0.371,0.903,0.861,1.677,1.475,2.318c0.611,0.643,1.305,1.185,2.077,1.625
	c0.772,0.442,1.565,0.833,2.378,1.174c0.812,0.342,1.604,0.652,2.377,0.933c0.772,0.281,1.464,0.582,2.076,0.903
	c0.611,0.321,1.104,0.697,1.475,1.129c0.371,0.431,0.557,0.947,0.557,1.55c0,0.521-0.101,0.982-0.301,1.384
	c-0.2,0.402-0.496,0.733-0.887,0.994c-0.392,0.261-0.854,0.461-1.385,0.602s-1.141,0.211-1.822,0.211
	c-1.084,0-2.05-0.131-2.902-0.392c-0.854-0.261-1.6-0.541-2.243-0.843s-1.179-0.576-1.61-0.828c-0.431-0.25-0.758-0.376-0.978-0.376
	c-0.181,0-0.331,0.035-0.452,0.105c-0.119,0.07-0.222,0.211-0.301,0.421c-0.08,0.211-0.141,0.492-0.181,0.844
	c-0.04,0.351-0.06,0.816-0.06,1.399c0,0.883,0.06,1.55,0.18,2.001c0.121,0.452,0.292,0.783,0.512,0.993
	c0.221,0.21,0.571,0.437,1.055,0.678c0.481,0.24,1.082,0.476,1.805,0.707c0.723,0.23,1.539,0.421,2.452,0.572
	c0.915,0.149,1.872,0.225,2.874,0.225c1.666,0,3.212-0.195,4.637-0.587c1.425-0.391,2.656-0.979,3.7-1.761
	c1.044-0.781,1.853-1.755,2.425-2.919c0.571-1.164,0.855-2.508,0.855-4.033C789.076,206.33,788.887,205.272,788.505,204.379z
	 M659.061,187.39c-0.281-0.101-0.662-0.176-1.144-0.226c-0.481-0.051-1.094-0.075-1.837-0.075s-1.354,0.024-1.834,0.075
	c-0.484,0.05-0.869,0.125-1.16,0.226c-0.29,0.101-0.492,0.226-0.602,0.376c-0.11,0.15-0.166,0.326-0.166,0.526v17.848
	c-1.104,1.345-2.141,2.368-3.115,3.069c-0.973,0.703-1.941,1.054-2.903,1.054c-0.763,0-1.431-0.146-2.003-0.437
	c-0.571-0.29-1.043-0.701-1.414-1.234c-0.372-0.531-0.647-1.168-0.826-1.91c-0.182-0.742-0.271-1.815-0.271-3.221v-15.169
	c0-0.2-0.061-0.376-0.182-0.526c-0.119-0.15-0.325-0.275-0.615-0.376c-0.293-0.101-0.678-0.176-1.16-0.226
	c-0.48-0.051-1.093-0.075-1.836-0.075c-0.723,0-1.328,0.024-1.821,0.075c-0.491,0.05-0.882,0.125-1.173,0.226
	s-0.492,0.226-0.604,0.376c-0.109,0.15-0.164,0.326-0.164,0.526v16.434c0,2.046,0.164,3.757,0.496,5.131
	c0.331,1.374,0.884,2.584,1.656,3.626c0.771,1.044,1.784,1.867,3.039,2.469c1.254,0.602,2.804,0.902,4.65,0.902
	c1.645,0,3.234-0.401,4.771-1.203c1.533-0.803,3.043-2.006,4.527-3.611v3.1c0,0.201,0.051,0.376,0.15,0.526s0.271,0.276,0.512,0.376
	c0.241,0.101,0.566,0.176,0.979,0.226s0.949,0.076,1.609,0.076c0.622,0,1.141-0.026,1.552-0.076c0.41-0.05,0.741-0.125,0.991-0.226
	c0.253-0.1,0.428-0.226,0.528-0.376s0.149-0.325,0.149-0.526v-26.847c0-0.2-0.059-0.376-0.181-0.526
	C659.542,187.615,659.34,187.49,659.061,187.39z M534.686,174.613c-0.291-0.109-0.678-0.195-1.158-0.256
	c-0.482-0.06-1.094-0.091-1.836-0.091s-1.355,0.031-1.836,0.091c-0.482,0.061-0.869,0.146-1.16,0.256
	c-0.29,0.111-0.496,0.246-0.615,0.406c-0.121,0.161-0.182,0.342-0.182,0.542v39.577c0,0.201,0.061,0.376,0.182,0.526
	c0.119,0.15,0.325,0.276,0.615,0.376c0.291,0.101,0.678,0.176,1.16,0.226c0.48,0.05,1.094,0.076,1.836,0.076
	s1.354-0.026,1.836-0.076c0.48-0.05,0.867-0.125,1.158-0.226c0.291-0.1,0.496-0.226,0.616-0.376c0.121-0.15,0.181-0.325,0.181-0.526
	v-39.577c0-0.2-0.06-0.381-0.181-0.542C535.182,174.859,534.977,174.725,534.686,174.613z M577.89,197.396
	c-0.784-0.853-1.677-1.584-2.681-2.196c-1.002-0.612-2.025-1.159-3.068-1.641c-1.043-0.482-2.068-0.938-3.07-1.37
	c-1.004-0.431-1.9-0.893-2.693-1.384c-0.792-0.491-1.426-1.054-1.895-1.686c-0.473-0.632-0.709-1.38-0.709-2.242
	c0-0.582,0.105-1.133,0.315-1.656c0.212-0.521,0.532-0.967,0.965-1.339c0.431-0.37,0.966-0.662,1.609-0.872
	c0.642-0.211,1.394-0.316,2.257-0.316c1.104,0,2.117,0.136,3.039,0.406c0.923,0.271,1.735,0.571,2.438,0.902
	c0.703,0.331,1.297,0.638,1.777,0.919c0.481,0.281,0.832,0.421,1.054,0.421c0.22,0,0.395-0.061,0.525-0.181s0.231-0.311,0.302-0.571
	c0.07-0.262,0.12-0.593,0.15-0.994c0.029-0.4,0.045-0.893,0.045-1.475c0-0.521-0.01-0.958-0.029-1.31
	c-0.021-0.35-0.057-0.642-0.105-0.872c-0.051-0.23-0.109-0.416-0.182-0.557c-0.07-0.14-0.205-0.312-0.406-0.512
	c-0.199-0.2-0.611-0.451-1.234-0.753c-0.621-0.3-1.334-0.571-2.137-0.812c-0.803-0.24-1.665-0.431-2.588-0.571
	c-0.924-0.141-1.846-0.211-2.768-0.211c-1.787,0-3.478,0.231-5.072,0.692c-1.596,0.462-2.98,1.159-4.152,2.092
	c-1.174,0.933-2.108,2.107-2.799,3.521c-0.693,1.414-1.041,3.054-1.041,4.921c0,1.625,0.242,3.02,0.725,4.183
	c0.481,1.164,1.107,2.173,1.881,3.024c0.771,0.854,1.65,1.586,2.632,2.198c0.983,0.612,1.997,1.158,3.04,1.64
	c1.044,0.481,2.057,0.938,3.041,1.369c0.982,0.433,1.861,0.894,2.633,1.385c0.772,0.491,1.4,1.054,1.881,1.686
	c0.482,0.632,0.723,1.39,0.723,2.272c0,0.763-0.141,1.455-0.422,2.076c-0.281,0.622-0.688,1.145-1.219,1.564
	c-0.531,0.422-1.178,0.748-1.94,0.979c-0.763,0.229-1.625,0.346-2.588,0.346c-1.466,0-2.755-0.166-3.868-0.497
	c-1.114-0.331-2.072-0.697-2.874-1.099c-0.804-0.401-1.46-0.767-1.972-1.099c-0.512-0.331-0.908-0.496-1.188-0.496
	c-0.203,0-0.378,0.056-0.527,0.165c-0.15,0.111-0.271,0.297-0.363,0.557c-0.088,0.262-0.153,0.603-0.193,1.023
	c-0.041,0.422-0.061,0.943-0.061,1.565c0,0.923,0.055,1.631,0.166,2.121c0.109,0.492,0.295,0.869,0.557,1.13
	c0.26,0.261,0.688,0.562,1.278,0.902s1.328,0.668,2.212,0.979s1.9,0.576,3.056,0.797c1.153,0.221,2.403,0.331,3.747,0.331
	c1.986,0,3.852-0.261,5.596-0.782c1.747-0.521,3.271-1.299,4.577-2.333c1.304-1.032,2.335-2.321,3.099-3.866
	c0.764-1.546,1.145-3.342,1.145-5.388c0-1.565-0.24-2.924-0.724-4.078C579.303,199.253,578.672,198.25,577.89,197.396z
	 M517.575,189.09c-0.962-0.853-2.192-1.484-3.687-1.896c-1.494-0.411-3.297-0.617-5.402-0.617c-1.185,0-2.332,0.097-3.446,0.286
	c-1.113,0.191-2.142,0.438-3.085,0.737c-0.943,0.302-1.766,0.628-2.468,0.979c-0.703,0.351-1.194,0.673-1.475,0.963
	c-0.281,0.291-0.472,0.617-0.572,0.979c-0.1,0.361-0.149,0.853-0.149,1.475c0,0.462,0.03,0.883,0.09,1.264
	c0.06,0.382,0.145,0.703,0.256,0.963c0.11,0.262,0.25,0.462,0.422,0.603c0.17,0.141,0.365,0.211,0.587,0.211
	c0.319,0,0.737-0.141,1.248-0.422c0.512-0.281,1.149-0.592,1.911-0.933c0.763-0.341,1.641-0.651,2.635-0.933
	c0.993-0.281,2.121-0.422,3.385-0.422c0.964,0,1.771,0.101,2.424,0.301c0.65,0.201,1.172,0.512,1.564,0.934
	c0.392,0.421,0.672,0.947,0.842,1.58c0.172,0.632,0.256,1.369,0.256,2.212v1.625h-2.618c-2.388,0-4.484,0.181-6.29,0.542
	c-1.806,0.36-3.315,0.918-4.53,1.67c-1.213,0.753-2.126,1.706-2.737,2.859c-0.612,1.154-0.919,2.514-0.919,4.077
	c0,1.445,0.241,2.709,0.722,3.793c0.482,1.083,1.159,1.992,2.031,2.724c0.875,0.732,1.906,1.284,3.102,1.655
	c1.192,0.371,2.502,0.557,3.928,0.557c1.726,0,3.295-0.331,4.71-0.993c1.415-0.661,2.674-1.585,3.777-2.769v2.137
	c0,0.281,0.085,0.502,0.256,0.662c0.17,0.161,0.46,0.275,0.872,0.346c0.41,0.07,1.068,0.106,1.972,0.106
	c0.843,0,1.479-0.036,1.912-0.106c0.429-0.07,0.747-0.185,0.947-0.346c0.2-0.16,0.3-0.381,0.3-0.662V197.17
	c0-1.845-0.221-3.44-0.662-4.785C519.241,191.041,518.538,189.942,517.575,189.09z M512.91,208.307
	c-0.922,1.043-1.83,1.836-2.725,2.378c-0.891,0.542-1.869,0.812-2.934,0.812c-1.263,0-2.253-0.321-2.963-0.963
	c-0.713-0.643-1.068-1.525-1.068-2.649c0-0.661,0.125-1.249,0.375-1.761c0.25-0.511,0.646-0.947,1.188-1.31
	c0.543-0.36,1.246-0.631,2.108-0.812c0.862-0.18,1.906-0.271,3.129-0.271h2.89V208.307z M626.027,174.613
	c-0.29-0.109-0.675-0.195-1.156-0.256c-0.483-0.06-1.096-0.091-1.837-0.091c-0.743,0-1.354,0.031-1.837,0.091
	c-0.48,0.061-0.866,0.146-1.156,0.256c-0.293,0.111-0.498,0.246-0.619,0.406c-0.119,0.161-0.181,0.342-0.181,0.542v39.577
	c0,0.201,0.062,0.376,0.181,0.526c0.121,0.15,0.326,0.276,0.619,0.376c0.29,0.101,0.676,0.176,1.156,0.226
	c0.483,0.05,1.094,0.076,1.837,0.076c0.741,0,1.354-0.026,1.837-0.076c0.481-0.05,0.866-0.125,1.156-0.226
	c0.291-0.1,0.498-0.226,0.619-0.376c0.119-0.15,0.181-0.325,0.181-0.526v-39.577c0-0.2-0.062-0.381-0.181-0.542
	C626.525,174.859,626.318,174.725,626.027,174.613z M60.703,61.853c-15.463-5.972-19.238-8.615-19.238-13.466
	c0-4.804,5.469-8.031,13.608-8.031c10.568,0,18.534,3.193,22.341,5.098c0.791,0.395,1.716,0.416,2.522,0.058
	c0.808-0.358,1.412-1.059,1.649-1.909l5.746-20.622c0.386-1.386-0.281-2.848-1.58-3.465c-8.428-4.003-18.637-6.032-30.341-6.032
	c-27.118,0-46.059,15.256-46.059,37.101c0,16.477,11.238,28.844,33.429,36.769c14.248,4.925,17.109,8.661,17.109,13.093
	c0,8.312-9.479,9.552-15.129,9.552c-10.552,0-20.965-3.492-27.191-6.761c-0.804-0.423-1.758-0.45-2.586-0.079
	c-0.828,0.372-1.44,1.104-1.659,1.986l-5.238,21.128c-0.321,1.299,0.269,2.652,1.44,3.301c6.509,3.596,19.836,7.468,33.714,7.468
	c15.328,0,27.967-3.877,36.55-11.21c7.877-6.729,12.213-16.344,12.213-27.074C92.004,81.475,82.045,69.744,60.703,61.853z
	 M476.566,133.234c0.426,1.168,1.536,1.946,2.779,1.946h25.69c1.235,0,2.34-0.769,2.771-1.926L538.57,50.6
	c0.338-0.908,0.209-1.925-0.343-2.72c-0.553-0.795-1.46-1.27-2.429-1.27h-27.043c-1.328,0-2.494,0.886-2.85,2.166l-10.661,38.412
	c-0.735,2.811-1.386,5.466-1.973,7.989c-0.633-2.647-1.331-5.336-2.13-8.066l-11.156-38.37c-0.367-1.263-1.524-2.131-2.84-2.131
	h-27.889c-0.965,0-1.869,0.471-2.422,1.261c-0.554,0.791-0.688,1.802-0.357,2.708L476.566,133.234z M178.441,49.567
	c0-1.634-1.323-2.957-2.957-2.957h-25.691c-1.633,0-2.957,1.323-2.957,2.957v49.188c0,1.771-0.255,3.244-0.76,4.379
	c-0.022,0.053-0.045,0.106-0.065,0.16c-1.22,3.248-4.591,7.041-10.079,7.041c-2.75,0-10.056,0-10.056-16.313V49.567
	c0-1.634-1.323-2.957-2.957-2.957H97.227c-1.634,0-2.957,1.323-2.957,2.957v48.512c0,24.76,11.673,38.96,32.027,38.96
	c11.855,0,19.549-5.019,24.096-9.587l0.516,5.069c0.152,1.511,1.425,2.659,2.941,2.659h22.312c0.81,0,1.584-0.333,2.142-0.918
	c0.558-0.586,0.852-1.376,0.812-2.185c-0.313-6.41-0.674-15.203-0.674-26.393V49.567z M372.033,41.89
	c0.234-0.405,0.449-0.823,0.651-1.249c0.069-0.143,0.144-0.287,0.209-0.433c0.189-0.424,0.356-0.855,0.518-1.294
	c0.058-0.165,0.124-0.325,0.179-0.492c0.142-0.432,0.262-0.875,0.375-1.324c0.045-0.181,0.098-0.359,0.141-0.541
	c0.098-0.454,0.17-0.916,0.236-1.379c0.023-0.155,0.062-0.3,0.079-0.455c0.004-0.035,0.003-0.07,0.008-0.109
	c0.042-0.381,0.059-0.77,0.08-1.155c0.015-0.272,0.037-0.545,0.039-0.814c0.003-0.057,0.01-0.112,0.01-0.171
	c0-0.265-0.028-0.523-0.039-0.784c-0.014-0.325-0.021-0.65-0.05-0.976c-0.03-0.316-0.08-0.628-0.126-0.94
	c-0.044-0.305-0.081-0.612-0.14-0.911c-0.065-0.343-0.152-0.675-0.237-1.012c-0.065-0.259-0.123-0.52-0.199-0.776
	c-0.108-0.363-0.238-0.716-0.368-1.068c-0.078-0.218-0.15-0.438-0.236-0.651c-0.15-0.366-0.32-0.724-0.491-1.079
	c-0.093-0.192-0.179-0.385-0.276-0.573c-0.185-0.352-0.388-0.69-0.592-1.027c-0.111-0.183-0.217-0.37-0.334-0.548
	c-0.209-0.319-0.436-0.627-0.662-0.931c-0.137-0.185-0.27-0.374-0.412-0.553c-0.227-0.28-0.465-0.546-0.704-0.812
	c-0.169-0.19-0.335-0.381-0.511-0.562c-0.235-0.24-0.481-0.468-0.729-0.694c-0.203-0.187-0.402-0.377-0.613-0.556
	c-0.244-0.207-0.5-0.397-0.755-0.594c-0.231-0.175-0.458-0.355-0.696-0.521c-0.263-0.182-0.537-0.346-0.809-0.515
	c-0.246-0.153-0.488-0.309-0.74-0.451c-0.298-0.163-0.604-0.312-0.908-0.461c-0.243-0.12-0.482-0.244-0.729-0.35
	c-0.345-0.153-0.698-0.281-1.051-0.41c-0.226-0.082-0.444-0.171-0.674-0.247c-0.394-0.128-0.798-0.23-1.202-0.333
	c-0.203-0.052-0.402-0.11-0.607-0.155c-0.42-0.091-0.849-0.157-1.278-0.22c-0.174-0.026-0.341-0.067-0.518-0.088
	c-0.048-0.004-0.095-0.007-0.143-0.013c-0.163-0.018-0.326-0.027-0.49-0.04c-0.458-0.039-0.912-0.063-1.364-0.069
	c-0.084-0.003-0.165-0.013-0.249-0.013h-59.905c-10.457,0-18.936,8.476-18.936,18.933c0,10.455,8.479,18.936,18.936,18.936h27.072
	l-33.336,57.622c-5.21,9.065-2.08,20.641,6.985,25.849c9.067,5.209,20.64,2.081,25.851-6.982l49.668-85.86
	C371.985,41.989,372.007,41.936,372.033,41.89z M446.139,128.109l-3.381-17.409c-0.164-0.839-0.682-1.566-1.421-1.995
	c-0.739-0.428-1.63-0.518-2.438-0.239c-6.867,2.345-13.609,3.391-21.86,3.391c-8.243,0-17.192-2.687-19.724-9.964l49.632,0.157h0.01
	c1.446,0,2.681-1.046,2.917-2.474c0.267-1.6,0.885-5.855,0.885-10.794c0-11.727-3.2-22.407-9.01-30.076
	c-6.999-9.239-17.648-14.123-30.796-14.123c-29.351,0-44.707,23.682-44.707,47.073c0,13.69,4.3,25.105,12.433,33.01
	c8.215,7.983,20.193,12.204,34.641,12.204c11.971,0,22.422-1.841,31.062-5.47C445.672,130.858,446.405,129.484,446.139,128.109z
	 M409.601,67.569c8.253,0,10.552,6.628,11.18,10.819h-23.679C398.478,73.398,402.098,67.569,409.601,67.569z M237.57,44.752
	c-10.352,0-19.085,3.272-25.613,9.529l-0.517-5.016c-0.155-1.509-1.425-2.655-2.941-2.655h-22.312c-0.807,0-1.578,0.329-2.137,0.911
	c-0.557,0.583-0.853,1.368-0.817,2.174c0.349,8.067,0.673,16.994,0.673,27.594v88.401c0,1.634,1.323,2.957,2.957,2.957h25.691
	c1.634,0,2.957-1.323,2.957-2.957v-34.249c4.885,3.576,11.514,5.598,18.849,5.598c19.497,0,40.479-14.783,40.479-47.242
	C274.84,60.225,256.091,44.752,237.57,44.752z M228.106,111.348c-5.814,0-10.693-3.956-12.157-9.852
	c-0.303-1.541-0.438-3.015-0.438-4.77V85.402c0-1.356,0.157-2.795,0.438-3.923c1.376-6.199,6.631-10.699,12.494-10.699
	c13.41,0,14.452,15.462,14.452,20.2C242.896,103.734,237.367,111.348,228.106,111.348z M703.886,132.223V83.374
	c0-24.184-12.163-38.622-32.536-38.622c-11.709,0-19.348,5.075-23.762,9.462l-0.51-4.949c-0.154-1.508-1.426-2.654-2.941-2.654
	h-22.312c-0.808,0-1.581,0.33-2.138,0.914c-0.559,0.584-0.854,1.371-0.816,2.178c0.35,7.67,0.672,16.156,0.672,26.234v56.286
	c0,1.634,1.324,2.958,2.958,2.958h25.692c1.633,0,2.957-1.324,2.957-2.958V84.557c0-2.482,0.213-4.274,0.639-5.341
	c0.918-2.333,3.771-7.76,10.434-7.76c2.486,0,10.059,0,10.059,14.96v45.807c0,1.634,1.323,2.958,2.957,2.958h25.689
	C702.562,135.181,703.886,133.856,703.886,132.223z M576.434,44.583c-29.352,0-44.707,23.682-44.707,47.073
	c0,13.69,4.299,25.105,12.432,33.01c8.215,7.983,20.193,12.204,34.641,12.204c11.971,0,22.422-1.841,31.063-5.47
	c1.291-0.542,2.024-1.916,1.758-3.291l-3.381-17.409c-0.163-0.839-0.682-1.566-1.421-1.995c-0.739-0.428-1.629-0.518-2.438-0.239
	c-6.871,2.345-13.615,3.391-21.865,3.391c-8.242,0-17.192-2.686-19.721-9.964l49.63,0.157h0.01c1.444,0,2.679-1.044,2.917-2.469
	c0.266-1.588,0.885-5.819,0.885-10.799c0-11.727-3.199-22.407-9.008-30.076C600.23,49.467,589.58,44.583,576.434,44.583z
	 M562.582,78.389c1.376-4.99,4.996-10.819,12.498-10.819c8.254,0,10.553,6.628,11.18,10.819H562.582z"/>
</svg>
