<?xml version="1.0" encoding="UTF-8"?>
<svg width="980px" height="680px" viewBox="0 0 980 680" version="1.1" xmlns="http://www.w3.org/2000/svg" xmlns:xlink="http://www.w3.org/1999/xlink">
    <title>WW PayPal text heritage</title>
    <defs>
        <linearGradient x1="50%" y1="0%" x2="50%" y2="100%" id="linearGradient-1">
            <stop stop-color="#FFFFFF" offset="0%"></stop>
            <stop stop-color="#EDEDED" offset="100%"></stop>
        </linearGradient>
        <rect id="path-2" x="2.84217094e-14" y="0" width="900" height="600" rx="80"></rect>
        <filter x="-6.7%" y="-10.0%" width="113.3%" height="120.0%" filterUnits="objectBoundingBox" id="filter-3">
            <feMorphology radius="2.5" operator="dilate" in="SourceAlpha" result="shadowSpreadOuter1"></feMorphology>
            <feOffset dx="0" dy="0" in="shadowSpreadOuter1" result="shadowOffsetOuter1"></feOffset>
            <feGaussianBlur stdDeviation="17.5" in="shadowOffsetOuter1" result="shadowBlurOuter1"></feGaussianBlur>
            <feColorMatrix values="0 0 0 0 0   0 0 0 0 0   0 0 0 0 0  0 0 0 0.5 0" type="matrix" in="shadowBlurOuter1"></feColorMatrix>
        </filter>
    </defs>
    <g id="WW-PayPal-text-heritage" stroke="none" stroke-width="1" fill="none" fill-rule="evenodd">
        <g transform="translate(40, 40)">
            <g id="Rectangle">
                <use fill="black" fill-opacity="1" filter="url(#filter-3)" xlink:href="#path-2"></use>
                <use fill="url(#linearGradient-1)" fill-rule="evenodd" xlink:href="#path-2"></use>
            </g>
            <g id="Logo" transform="translate(49.9999, 194)" fill-rule="nonzero">
                <path d="M255.812615,42.4133538 C254.166159,42.4133538 252.767735,43.6086285 252.510255,45.2361863 L233.452002,166.0983 C233.311856,166.991765 233.569585,167.901825 234.157406,168.58913 C234.745227,169.276435 235.604302,169.672313 236.508692,169.672313 L259.11025,169.672313 C260.754343,169.672313 262.15513,168.474676 262.41261,166.84948 L268.011031,131.357381 C268.266149,129.732185 269.666935,128.534549 271.313391,128.534549 L291.862194,128.534549 C315.871625,128.534549 336.252712,111.016452 339.975543,87.2786742 C343.729084,63.3401096 325.027523,42.4653222 298.521244,42.4133538 L255.812615,42.4133538 Z M277.783464,69.3944357 L294.224397,69.3944357 C307.75982,69.3944357 312.16769,77.3810439 310.773991,86.2133207 C309.380291,95.0644951 302.534627,101.584175 289.440936,101.584175 L272.70709,101.584175 L277.783464,69.3944357 Z M385.944013,77.6098807 C380.23693,77.6314374 373.670006,78.8007278 366.297571,81.8715917 C349.38656,88.9204052 341.265306,103.488111 337.81649,114.108575 C337.81649,114.108575 326.839333,146.510913 351.640101,164.312474 C351.640101,164.312474 374.640871,181.450257 400.532978,163.25657 L400.086522,166.0983 C399.946502,166.990951 400.203629,167.90021 400.790389,168.587337 C401.377149,169.274465 402.234923,169.670812 403.138488,169.672313 L424.594377,169.672313 C426.240832,169.672313 427.639257,168.474676 427.896737,166.84948 L440.947908,84.0826136 C441.089458,83.1892266 440.833034,82.2786322 440.246095,81.590388 C439.659157,80.9021438 438.800472,80.5051607 437.895942,80.5038762 L416.440052,80.5038762 C414.793597,80.5038762 413.392811,81.701513 413.137693,83.3267087 L412.436118,87.7818234 C412.436118,87.7818234 403.065259,77.5463981 385.94165,77.6098807 L385.944013,77.6098807 Z M386.645587,103.752677 C389.109364,103.752677 391.362906,104.092835 393.384952,104.742441 C402.642425,107.714092 407.89124,116.607786 406.372344,126.247936 C404.499117,138.118006 394.764478,146.858157 382.280236,146.858157 C379.81882,146.858157 377.565279,146.520362 375.540871,145.870756 C366.28576,142.899105 361.003874,134.005411 362.52277,124.36526 C364.395997,112.495191 374.161344,103.750315 386.645587,103.750315 L386.645587,103.752677 Z" id="Shape" fill="#003087"></path>
                <path d="M564.788759,42.4133538 C563.142304,42.4133538 561.74388,43.6086285 561.4864,45.2361863 L542.428146,166.0983 C542.288,166.991765 542.54573,167.901825 543.13355,168.58913 C543.721371,169.276435 544.580447,169.672313 545.484837,169.672313 L568.086395,169.672313 C569.730488,169.672313 571.131274,168.474676 571.388754,166.84948 L576.987175,131.357381 C577.242293,129.732185 578.643079,128.534549 580.289535,128.534549 L600.838338,128.534549 C624.847769,128.534549 645.226494,111.016452 648.946963,87.2786742 C652.702866,63.3401096 634.003668,42.4653222 607.497388,42.4133538 L564.788759,42.4133538 Z M586.759609,69.3944357 L603.200541,69.3944357 C616.735964,69.3944357 621.143835,77.3810439 619.750135,86.2133207 C618.356435,95.0644951 611.513133,101.584175 598.41708,101.584175 L581.683235,101.584175 L586.759609,69.3944357 Z M694.917795,77.6098807 C689.210712,77.6314374 682.643788,78.8007278 675.271353,81.8715917 C658.360342,88.9204052 650.239088,103.488111 646.790272,114.108575 C646.790272,114.108575 635.817839,146.510913 660.618608,164.312474 C660.618608,164.312474 683.614654,181.450257 709.509122,163.25657 L709.062666,166.0983 C708.92252,166.991765 709.180249,167.901825 709.76807,168.58913 C710.355891,169.276435 711.214966,169.672191 712.119357,169.672313 L733.572884,169.672313 C735.219339,169.672313 736.617763,168.474676 736.875243,166.84948 L749.931139,84.0826136 C750.072817,83.188412 749.815791,82.2770161 749.227791,81.5885933 C748.639792,80.9001706 747.779804,80.5037797 746.874448,80.5038762 L725.418559,80.5038762 C723.772104,80.5038762 722.371317,81.701513 722.116199,83.3267087 L721.414625,87.7818234 C721.414625,87.7818234 712.043766,77.5463981 694.920157,77.6098807 L694.917795,77.6098807 Z M695.619369,103.752677 C698.083147,103.752677 700.336688,104.092835 702.358734,104.742441 C711.616207,107.714092 716.865022,116.607786 715.346126,126.247936 C713.472899,138.118006 703.738261,146.858157 691.254018,146.858157 C688.792603,146.858157 686.539061,146.520362 684.514653,145.870756 C675.259542,142.899105 669.977656,134.005411 671.496553,124.36526 C673.36978,112.495191 683.135126,103.750315 695.619369,103.750315 L695.619369,103.752677 Z" id="Shape" fill="#0070E0"></path>
                <path d="M451.129003,80.5038762 C449.428217,80.5038762 448.218769,82.1645048 448.738453,83.7826138 L472.26127,156.777047 L450.991995,191.175446 C449.959712,192.845524 451.159711,195.002215 453.122702,195.002215 L478.261266,195.002215 C479.72338,195.000939 481.078614,194.235989 481.835279,192.984894 L547.530505,84.3070229 C548.539165,82.6369454 547.334442,80.501514 545.383262,80.501514 L520.247061,80.501514 C518.770203,80.5027787 517.403566,81.2830729 516.651788,82.5542683 L490.792752,126.212503 L477.66599,82.8778901 C477.238432,81.467655 475.936858,80.501514 474.465205,80.501514 L451.129003,80.5038762 Z" id="Path" fill="#003087"></path>
                <path d="M774.309073,42.4133538 C772.66498,42.4133538 771.264194,43.6109907 771.006714,45.2361863 L751.943736,166.093575 C751.802058,166.987777 752.059084,167.899173 752.647083,168.587596 C753.235083,169.276018 754.095071,169.672313 755.000426,169.672313 L777.601984,169.672313 C779.246077,169.672313 780.646864,168.474676 780.904344,166.84948 L799.962597,45.9873668 C800.102617,45.0947158 799.84549,44.1854562 799.25873,43.4983291 C798.671969,42.8112019 797.814196,42.4148543 796.910631,42.4133538 L774.309073,42.4133538 Z" id="Path" fill="#0070E0"></path>
                <path d="M67.3891352,42.4133538 C64.3814481,42.4158379 61.8216576,44.6040781 61.3513445,47.5747672 L51.3190686,111.203066 C51.7867848,108.231414 54.3474128,106.041652 57.3568593,106.041652 L86.7544749,106.041652 C116.341067,106.041652 141.44656,84.4582039 146.033958,55.2094071 C146.375326,53.0257507 146.568681,50.8215142 146.612697,48.6117743 C139.093805,44.6692576 130.261529,42.4133538 120.583583,42.4133538 L67.3891352,42.4133538 Z" id="Path" fill="#001C64"></path>
                <path d="M146.612697,48.6141365 C146.568681,50.8238764 146.375326,53.0281129 146.033958,55.2117693 C141.44656,84.4605661 116.338704,106.044014 86.7544749,106.044014 L57.3568593,106.044014 C54.349775,106.044014 51.7867848,108.231414 51.3190686,111.205428 L42.0946661,169.674675 L36.3167177,206.354962 C36.0885043,207.789185 36.5002419,209.25138 37.4433037,210.355785 C38.3863655,211.46019 39.7660232,212.095116 41.2182888,212.095116 L73.1269261,212.095116 C76.1346132,212.092631 78.6944037,209.904391 79.1647168,206.933702 L87.5694349,153.625868 C88.0400287,150.653413 90.6024736,148.464616 93.61195,148.464455 L112.39855,148.464455 C141.985142,148.464455 167.090635,126.881006 171.678033,97.6322097 C174.935511,76.8731702 164.4804,57.9849955 146.612697,48.6164987 L146.612697,48.6141365 Z" id="Path" fill="#0070E0"></path>
                <path d="M31.1387689,0 C28.1316846,0 25.5686944,2.18739992 25.1009782,5.15668902 L0.0616270287,163.934522 C-0.413175762,166.948693 1.91595634,169.674675 4.96792253,169.674675 L42.0993905,169.674675 L51.3190686,111.205428 L61.3513445,47.5771294 C61.8216576,44.6064403 64.3814481,42.4182001 67.3891352,42.415716 L120.583583,42.415716 C130.263891,42.415716 139.093805,44.673982 146.612697,48.6141365 C147.127658,21.9850228 125.154446,0 94.9442325,0 L31.1387689,0 Z" id="Path" fill="#003087"></path>
            </g>
        </g>
    </g>
</svg>