<?xml version="1.0" encoding="UTF-8"?>
<svg width="980px" height="680px" viewBox="0 0 980 680" version="1.1" xmlns="http://www.w3.org/2000/svg" xmlns:xlink="http://www.w3.org/1999/xlink">
    <title>WW stripe alt2</title>
    <defs>
        <rect id="path-1" x="0" y="-2.84217094e-14" width="900" height="600" rx="80"></rect>
        <filter x="-6.7%" y="-10.0%" width="113.3%" height="120.0%" filterUnits="objectBoundingBox" id="filter-2">
            <feMorphology radius="2.5" operator="dilate" in="SourceAlpha" result="shadowSpreadOuter1"></feMorphology>
            <feOffset dx="0" dy="0" in="shadowSpreadOuter1" result="shadowOffsetOuter1"></feOffset>
            <feGaussianBlur stdDeviation="17.5" in="shadowOffsetOuter1" result="shadowBlurOuter1"></feGaussianBlur>
            <feColorMatrix values="0 0 0 0 0   0 0 0 0 0   0 0 0 0 0  0 0 0 0.5 0" type="matrix" in="shadowBlurOuter1"></feColorMatrix>
        </filter>
    </defs>
    <g id="WW-stripe-alt2" stroke="none" stroke-width="1" fill="none" fill-rule="evenodd">
        <g transform="translate(40, 40)">
            <g id="Rectangle">
                <use fill="black" fill-opacity="1" filter="url(#filter-2)" xlink:href="#path-1"></use>
                <use fill="#635BFF" fill-rule="evenodd" xlink:href="#path-1"></use>
            </g>
            <g id="Logo" transform="translate(50, 134)" fill="#FFFFFF">
                <path d="M800,172 C800,115.111111 772.444444,70.2222222 719.777778,70.2222222 C666.888889,70.2222222 634.888889,115.111111 634.888889,171.555556 C634.888889,238.444444 672.666667,272.222222 726.888889,272.222222 C753.333333,272.222222 773.333333,266.222222 788.444444,257.777778 L788.444444,213.333333 C773.333333,220.888889 756,225.555556 734,225.555556 C712.444444,225.555556 693.333333,218 690.888889,191.777778 L799.555556,191.777778 C799.555556,188.888889 800,177.333333 800,172 Z M690.222222,150.888889 C690.222222,125.777778 705.555556,115.333333 719.555556,115.333333 C733.111111,115.333333 747.555556,125.777778 747.555556,150.888889 L690.222222,150.888889 Z" id="Shape"></path>
                <path d="M549.111111,70.2222222 C527.333333,70.2222222 513.333333,80.4444444 505.555556,87.5555556 L502.666667,73.7777778 L453.777778,73.7777778 L453.777778,332.888889 L509.333333,321.111111 L509.555556,258.222222 C517.555556,264 529.333333,272.222222 548.888889,272.222222 C588.666667,272.222222 624.888889,240.222222 624.888889,169.777778 C624.666667,105.333333 588,70.2222222 549.111111,70.2222222 Z M535.777778,223.333333 C522.666667,223.333333 514.888889,218.666667 509.555556,212.888889 L509.333333,130.444444 C515.111111,124 523.111111,119.555556 535.777778,119.555556 C556,119.555556 570,142.222222 570,171.333333 C570,201.111111 556.222222,223.333333 535.777778,223.333333 Z" id="Shape"></path>
                <polygon id="Path" points="377.333333 57.1111111 433.111111 45.1111111 433.111111 0 377.333333 11.7777778"></polygon>
                <rect id="Rectangle" x="377.333333" y="74" width="55.7777778" height="194.444444"></rect>
                <path d="M317.555556,90.4444444 L314,74 L266,74 L266,268.444444 L321.555556,268.444444 L321.555556,136.666667 C334.666667,119.555556 356.888889,122.666667 363.777778,125.111111 L363.777778,74 C356.666667,71.3333333 330.666667,66.4444444 317.555556,90.4444444 Z" id="Path"></path>
                <path d="M206.444444,25.7777778 L152.222222,37.3333333 L152,215.333333 C152,248.222222 176.666667,272.444444 209.555556,272.444444 C227.777778,272.444444 241.111111,269.111111 248.444444,265.111111 L248.444444,220 C241.333333,222.888889 206.222222,233.111111 206.222222,200.222222 L206.222222,121.333333 L248.444444,121.333333 L248.444444,74 L206.222222,74 L206.444444,25.7777778 Z" id="Path"></path>
                <path d="M56.2222222,130.444444 C56.2222222,121.777778 63.3333333,118.444444 75.1111111,118.444444 C92,118.444444 113.333333,123.555556 130.222222,132.666667 L130.222222,80.4444444 C111.777778,73.1111111 93.5555556,70.2222222 75.1111111,70.2222222 C30,70.2222222 0,93.7777778 0,133.111111 C0,194.444444 84.4444444,184.666667 84.4444444,211.111111 C84.4444444,221.333333 75.5555556,224.666667 63.1111111,224.666667 C44.6666667,224.666667 21.1111111,217.111111 2.44444444,206.888889 L2.44444444,259.777778 C23.1111111,268.666667 44,272.444444 63.1111111,272.444444 C109.333333,272.444444 141.111111,249.555556 141.111111,209.777778 C140.888889,143.555556 56.2222222,155.333333 56.2222222,130.444444 Z" id="Path"></path>
            </g>
        </g>
    </g>
</svg>